# AST/ASF file generated using VICON BodyLanguage
# -----------------------------------------------
:version 1.10
:name VICON
:units
  mass 1.0
  length 0.45
  angle deg
:documentation
   .ast/.asf automatically generated from VICON data using
   VICON BodyBuilder and BodyLanguage model FoxedUp or BRILLIANT.MOD
:root
   order TX TY TZ RX RY RZ
   axis XYZ
   position 0 0 0  
   orientation 0 0 0 
:bonedata
  begin
     id 1 
     name lhipjoint
     direction 0.645893 -0.654526 0.392961 
     length 2.38111 
     axis 0 0 0  XYZ
  end
  begin
     id 2 
     name lfemur
     direction 0.34202 -0.939693 0  
     length 6.6822  
     axis 0 0 20  XYZ
    dof rx ry rz
    limits (-160.0 20.0)
           (-70.0 70.0)
           (-60.0 70.0)
  end
  begin
     id 3 
     name ltibia
     direction 0.34202 -0.939693 0   
     length 6.93904   
     axis 0 0 20   XYZ
    dof rx
    limits (-10.0 170.0)
  end
  begin
     id 4 
     name lfoot
     direction 0.0694967 -0.190941 0.979138   
     length 2.13616   
     axis -90 7.62852e-016 20   XYZ
    dof rx rz
    limits (-45.0 90.0)
           (-70.0 20.0)
  end
  begin
     id 5 
     name ltoes
     direction 1.535e-011 -4.2202e-011 1   
     length 1.07536   
     axis -90 7.62852e-016 20   XYZ
    dof rx
    limits (-90.0 20.0)
  end
  begin
     id 6 
     name rhipjoint
     direction -0.700219 -0.612087 0.367481   
     length 2.54621  
     axis 0 0 0  XYZ 
  end
  begin
     id 7 
     name rfemur
     direction -0.34202 -0.939693 0   
     length 6.55353   
     axis 0 0 -20   XYZ
    dof rx ry rz
    limits (-160.0 20.0)
           (-70.0 70.0)
           (-70.0 60.0)
  end
  begin
     id 8 
     name rtibia
     direction -0.34202 -0.939693 0   
     length 6.8736   
     axis 0 0 -20   XYZ
    dof rx
    limits (-10.0 170.0)
 end
 begin
     id 9 
     name rfoot
     direction -0.0679995 -0.186827 0.980037   
     length 2.1218  
     axis -90 -7.62852e-016 -20   XYZ
    dof rx rz
    limits (-45.0 90.0)
           (-20.0 70.0)
  end
  begin
     id 10 
     name rtoes
     direction -1.53589e-011 -4.21772e-011 1   
     length 1.06864   
     axis -90 -7.62852e-016 -20   XYZ
    dof rx
    limits (-90.0 20.0)
  end
  begin
     id 11 
     name lowerback
     direction -0.0416607 0.996347 -0.0745409   
     length 2.12205   
     axis 0 0 0   XYZ
    dof rx ry rz
    limits (-20.0 45.0)
           (-30.0 30.0)
           (-30.0 30.0)
  end
  begin
     id 12 
     name upperback
     direction -0.000153993 0.999276 -0.0380568   
     length 2.12759   
     axis 0 0 0   XYZ
    dof rx ry rz
    limits (-20.0 45.0)
           (-30.0 30.0)
           (-30.0 30.0)
  end
  begin
     id 13 
     name thorax
     direction 0.0187671 0.999821 -0.00241421   
     length 2.13704   
     axis 0 0 0   XYZ
    dof rx ry rz
    limits (-20.0 45.0)
           (-30.0 30.0)
           (-30.0 30.0)
  end
  begin
     id 14 
     name lowerneck
     direction 0.0268157 0.964865 0.261374   
     length 1.65253   
     axis 0 0 0   XYZ
    dof rx ry rz
    limits (-20.0 45.0)
           (-30.0 30.0)
           (-30.0 30.0)
  end
  begin
     id 15 
     name upperneck
     direction 0.00263774 0.939908 -0.341418   
     length 1.72375   
     axis 0 0 0   XYZ
    dof rx ry rz
    limits (-20.0 45.0)
           (-30.0 30.0)
           (-30.0 30.0)
  end
  begin
     id 16
     name head
     direction -0.00526001 0.989001 -0.147818  
     length 1.74878  
     axis 0 0 0   XYZ
    dof rx ry rz
    limits (-20.0 45.0)
           (-30.0 30.0)
           (-30.0 30.0)
  end
  begin
     id 17 
     name lclavicle
     direction 0.881214 0.461162 -0.103884  
     length 3.25108  
     axis 0 0 0   XYZ
    dof ry rz
    limits (-20.0 10.0)
           (0.0 20.0)
  end
  begin
     id 18 
     name lhumerus
     direction 1 -4.4899e-011 3.38092e-027   
     length 4.87408   
     axis 180 -30 -90   XYZ
    dof rx ry rz
    limits (-60.0 90.0)
           (-90.0 90.0)
           (-90.0 90.0)
  end
  begin
     id 19
     name lradius
     direction 1 -4.48931e-011 9.96288e-027   
     length 2.76729   
     axis 180 -30 -90   XYZ
    dof rx
    limits (-10.0 170.0)
  end
  begin
     id 20
     name lwrist
     direction 1 -4.4896e-011 1.50617e-026   
     length 1.38364   
     axis -9.31234e-015 90 90   XYZ
    dof ry
    limits (-180.0 0.0)
 end
  begin
     id 21 
     name lhand
     direction 1 -4.49038e-011 3.01286e-026   
     length 0.98922   
     axis -1.92217e-014 90 90   XYZ
    dof rx rz
    limits (-90.0 90.0)
           (-45.0 45.0)
  end
  begin
     id 22 
     name lfingers
     direction 1 -4.49051e-011 6.02588e-026   
     length 0.797535   
     axis -3.84436e-014 90 90   XYZ
    dof rx
    limits (0.0 90.0)
  end
  begin
     id 23
     name lthumb
     direction 0.707107 -6.34901e-011 0.707107   
     length 1.14511   
     axis -90 45 2.19363e-014   XYZ
    dof rx rz
    limits (-45.0 45.0)
           (-45.0 45.0)
  end
  begin
     id 24 
     name rclavicle
     direction -0.893894 0.441652 -0.0767889   
     length 3.29361  
     axis 0 0 0   XYZ 
    dof ry rz
    limits (-10.0 20.0)
           (-20.0 0.0)
  end
  begin
     id 25 
     name rhumerus
     direction -1 -4.48945e-011 8.0491e-028  
     length 4.71404   
     axis 180 30 90   XYZ
    dof rx ry rz
    limits (-90.0 60.0)
           (-90.0 90.0)
           (-90.0 90.0)
  end
  begin
     id 26 
     name rradius
     direction -1 -4.48986e-011 9.27795e-027   
     length 2.83468   
     axis 180 30 90   XYZ
    dof rx
    limits (-10.0 170.0)
  end
  begin
     id 27 
     name rwrist
     direction -1 -4.49029e-011 1.5064e-026   
     length 1.41734   
     axis -9.31234e-015 -90 -90   XYZ
    dof ry
    limits (-180.0 0.0)
  end
  begin
     id 28
     name rhand
     direction -1 -4.48857e-011 3.01165e-026   
     length 0.868195   
     axis -1.92217e-014 -90 -90   XYZ
    dof rx rz
    limits (-90.0 90.0)
           (-45.0 45.0)
  end
  begin
     id 29
     name rfingers
     direction -1 -4.49048e-011 6.02585e-026   
     length 0.699961   
     axis -3.84436e-014 -90 -90   XYZ
    dof rx
    limits (0.0 90.0)
  end
  begin
     id 30
     name rthumb
     direction -0.707107 -6.34854e-011 0.707107   
     length 1.00501   
     axis -90 -45 -2.19363e-014   XYZ
    dof rx rz
    limits (-45.0 45.0)
           (-45.0 45.0)
  end
:hierarchy
  begin
    root lhipjoint rhipjoint lowerback
    lhipjoint lfemur
    lfemur ltibia
    ltibia lfoot
    lfoot ltoes
    rhipjoint rfemur
    rfemur rtibia
    rtibia rfoot
    rfoot rtoes
    lowerback upperback
    upperback thorax
    thorax lowerneck lclavicle rclavicle
    lowerneck upperneck
    upperneck head
    lclavicle lhumerus
    lhumerus lradius
    lradius lwrist
    lwrist lhand lthumb
    lhand lfingers
    rclavicle rhumerus
    rhumerus rradius
    rradius rwrist
    rwrist rhand rthumb
    rhand rfingers
  end

#!OML:ASF H:\ManfredObstacles\Project 1\Capture day 2\Session 1\male.ASF
:FULLY-SPECIFIED
:DEGREES
1
root 1.77472 15.7537 35.7427 -171.439 -2.06547 178.401
lowerback 0.98675 4.84256 -2.77547
upperback 1.07108 6.39982 -1.49426
thorax 0.415978 3.16742 -0.0338763
lowerneck -32.3461 -2.72282 -0.651373
upperneck 41.1547 -9.45516 3.93105
head 24.023 -3.68564 -0.856518
rclavicle 7.52027e-014 -1.14798e-014
rhumerus -37.1769 15.9494 -96.0122
rradius 92.2776
rwrist 8.96602
rhand -11.191 -1.797
rfingers 7.12502
rthumb 14.8365 -31.2458
lclavicle 7.52027e-014 -1.14798e-014
lhumerus -67.7931 -22.3463 93.159
lradius 95.0858
lwrist -16.7441
lhand -11.7297 2.91921
lfingers 7.12502
lthumb 14.3175 32.4056
rfemur -10.1976 2.65048 24.1999
rtibia 40.6005
rfoot 6.24538 -25.1484
rtoes 34.1094
lfemur -41.5368 -7.93658 -19.1941
ltibia 63.5243
lfoot 11.4256 20.9141
ltoes -3.28855
2
root 1.77562 15.8536 35.4676 -171.049 -2.36398 178.045
lowerback 0.411707 4.70374 -3.54223
upperback 1.42901 6.24539 -1.25951
thorax 1.00059 3.06997 0.694096
lowerneck -33.4664 -2.98257 -1.3714
upperneck 41.0655 -9.34158 4.07848
head 24.444 -3.66979 -0.622351
rclavicle -5.58709e-014 2.68359e-014
rhumerus -36.581 17.7554 -95.4512
rradius 92.9103
rwrist 8.40258
rhand -11.0839 -1.36126
rfingers 7.12502
rthumb 14.9396 -30.8025
lclavicle -5.58709e-014 2.68359e-014
lhumerus -67.5521 -21.3027 92.9598
lradius 95.2904
lwrist -17.3754
lhand -11.7963 2.76631
lfingers 7.12502
lthumb 14.2533 32.2572
rfemur -9.44232 2.51585 23.8723
rtibia 39.9185
rfoot 8.10206 -24.2395
rtoes 33.7417
lfemur -41.7233 -8.70948 -19.2839
ltibia 59.2911
lfoot 11.5194 19.0753
ltoes -4.55691
3
root 1.77581 15.96 35.1826 -170.437 -2.46924 177.709
lowerback -1.52026 4.72437 -4.57248
upperback 2.74302 6.4115 -0.826017
thorax 3.27488 3.05423 1.94332
lowerneck -35.3563 -3.50537 -2.19786
upperneck 40.4587 -9.23144 4.23633
head 24.6688 -3.59648 -0.343317
rclavicle -6.79844e-014 2.3059e-014
rhumerus -34.0608 19.4 -93.6205
rradius 93.1555
rwrist 8.14254
rhand -10.6943 -0.957631
rfingers 7.12502
rthumb 15.3149 -30.3706
lclavicle -6.79844e-014 2.3059e-014
lhumerus -65.4244 -20.6792 92.8545
lradius 95.298
lwrist -17.5157
lhand -11.8916 2.64224
lfingers 7.12502
lthumb 14.1614 32.1396
rfemur -8.91266 2.52177 23.5294
rtibia 39.2074
rfoot 9.69997 -23.7149
rtoes 33.1895
lfemur -42.0829 -9.12888 -19.3914
ltibia 55.33
lfoot 11.5159 17.2514
ltoes -4.60252
4
root 1.77446 16.0695 34.8921 -170.075 -2.56854 177.526
lowerback -2.20095 4.83713 -4.90275
upperback 2.7752 6.62147 -0.959585
thorax 3.65907 3.1391 2.05887
lowerneck -35.2684 -3.80544 -2.61384
upperneck 40.5513 -9.84196 4.76504
head 24.9054 -3.81431 -0.165559
rclavicle -5.51627e-015 1.27222e-014
rhumerus -34.1545 19.82 -93.5082
rradius 93.584
rwrist 8.11102
rhand -10.4391 -0.912626
rfingers 7.12502
rthumb 15.5608 -30.3066
lclavicle -5.51627e-015 1.27222e-014
lhumerus -65.677 -20.8761 92.7428
lradius 95.4742
lwrist -17.5137
lhand -12.08 2.84662
lfingers 7.12502
lthumb 13.9799 32.3566
rfemur -8.26003 2.36812 23.3819
rtibia 38.5906
rfoot 11.61 -23.2254
rtoes 32.2011
lfemur -41.965 -9.31827 -19.5143
ltibia 51.3908
lfoot 12.0558 14.7975
ltoes -5.19103
5
root 1.7715 16.1528 34.6084 -169.726 -2.67592 177.336
lowerback -2.80103 4.88736 -5.33205
upperback 2.90093 6.75128 -0.979249
thorax 4.07595 3.17425 2.34141
lowerneck -35.6997 -4.07739 -2.92286
upperneck 40.5487 -10.171 4.97653
head 25.1696 -3.92169 -0.100496
rclavicle 1.18376e-013 -2.34566e-014
rhumerus -34.0295 20.5317 -93.199
rradius 94.0267
rwrist 8.01055
rhand -10.1453 -0.690096
rfingers 7.12502
rthumb 15.8437 -30.0618
lclavicle 1.18376e-013 -2.34566e-014
lhumerus -65.7849 -20.7729 92.6476
lradius 95.7091
lwrist -17.5761
lhand -12.1914 2.89055
lfingers 7.12502
lthumb 13.8725 32.4079
rfemur -7.65971 2.17919 23.2166
rtibia 38.1538
rfoot 13.2562 -22.804
rtoes 31.0849
lfemur -41.8465 -9.587 -19.5943
ltibia 47.5996
lfoot 12.3153 12.7489
ltoes -6.03675
6
root 1.76677 16.2265 34.3245 -169.458 -2.75429 177.231
lowerback -3.18654 4.93889 -5.59578
upperback 2.85489 6.86267 -1.06062
thorax 4.21849 3.2182 2.44124
lowerneck -35.8945 -4.27227 -3.07129
upperneck 40.6177 -10.5127 5.12514
head 25.3934 -4.03277 -0.105783
rclavicle -4.48756e-014 1.76918e-014
rhumerus -34.289 21.0608 -93.1638
rradius 94.4421
rwrist 7.95906
rhand -9.85004 -0.504281
rfingers 7.12502
rthumb 16.1281 -29.8532
lclavicle -4.48756e-014 1.76918e-014
lhumerus -66.2072 -20.7555 92.5421
lradius 95.991
lwrist -17.5458
lhand -12.2763 2.94055
lfingers 7.12502
lthumb 13.7908 32.4635
rfemur -7.07013 1.9214 23.134
rtibia 37.8728
rfoot 14.7671 -22.4715
rtoes 29.7435
lfemur -41.6371 -9.73704 -19.6512
ltibia 44.1543
lfoot 12.6067 10.8762
ltoes -7.052
7
root 1.76007 16.2886 34.0413 -169.284 -2.8187 177.24
lowerback -3.38092 4.96893 -5.67283
upperback 2.68783 6.92063 -1.16388
thorax 4.15344 3.25225 2.38991
lowerneck -35.9205 -4.38452 -3.14087
upperneck 40.7625 -10.8168 5.24375
head 25.617 -4.13697 -0.132138
rclavicle -5.04913e-014 -4.07509e-015
rhumerus -34.8426 21.5008 -93.3537
rradius 94.8221
rwrist 7.92411
rhand -9.55786 -0.34556
rfingers 7.12502
rthumb 16.4094 -29.6715
lclavicle -5.04913e-014 -4.07509e-015
lhumerus -66.8572 -20.7303 92.4259
lradius 96.3141
lwrist -17.4497
lhand -12.3395 3.00511
lfingers 7.12502
lthumb 13.7298 32.5322
rfemur -6.50966 1.6043 23.1628
rtibia 37.8192
rfoot 16.1427 -22.183
rtoes 28.4531
lfemur -41.3295 -9.79984 -19.6522
ltibia 41.0748
lfoot 13.0193 9.28918
ltoes -8.19421
8
root 1.75132 16.3387 33.7595 -169.189 -2.8651 177.372
lowerback -3.46013 4.96418 -5.57832
upperback 2.48152 6.9132 -1.24833
thorax 4.00422 3.26307 2.24843
lowerneck -35.9132 -4.41747 -3.14382
upperneck 40.9392 -11.0173 5.29915
head 25.8349 -4.20778 -0.174671
rclavicle -7.84702e-014 1.77912e-014
rhumerus -35.506 21.9247 -93.6571
rradius 95.1296
rwrist 7.90543
rhand -9.27696 -0.199233
rfingers 7.12502
rthumb 16.6798 -29.5026
lclavicle -7.84702e-014 1.77912e-014
lhumerus -67.5685 -20.6217 92.2929
lradius 96.6594
lwrist -17.3163
lhand -12.3829 3.05251
lfingers 7.12502
lthumb 13.688 32.5824
rfemur -5.95706 1.26145 23.3122
rtibia 37.914
rfoot 17.4079 -21.9156
rtoes 27.4098
lfemur -40.9977 -9.7741 -19.5845
ltibia 38.5213
lfoot 13.5683 8.13451
ltoes -9.28328
9
root 1.74044 16.3758 33.479 -169.16 -2.88877 177.621
lowerback -3.62769 4.91554 -5.37535
upperback 2.41185 6.85094 -1.24035
thorax 4.05247 3.23958 2.1567
lowerneck -35.9615 -4.42831 -3.26242
upperneck 41.0694 -11.0937 5.39986
head 26.0424 -4.24709 -0.127084
rclavicle 5.35476e-014 1.02871e-014
rhumerus -35.9615 22.4322 -93.8234
rradius 95.3401
rwrist 7.85425
rhand -9.02397 -0.123043
rfingers 7.12502
rthumb 16.9234 -29.4057
lclavicle 5.35476e-014 1.02871e-014
lhumerus -68.013 -20.3627 92.1684
lradius 96.9751
lwrist -17.1751
lhand -12.4312 3.10804
lfingers 7.12502
lthumb 13.6415 32.641
rfemur -5.43769 0.92989 23.5731
rtibia 38.1703
rfoot 18.5443 -21.6736
rtoes 26.5253
lfemur -40.6785 -9.65727 -19.4621
ltibia 36.5593
lfoot 14.3143 7.43866
ltoes -10.1998
10
root 1.72769 16.3993 33.2004 -169.192 -2.88768 177.967
lowerback -3.7475 4.824 -5.02897
upperback 2.34875 6.71999 -1.21089
thorax 4.0981 3.18642 2.00096
lowerneck -36.0063 -4.37723 -3.3955
upperneck 41.2302 -11.0842 5.51495
head 26.2837 -4.26329 -0.0405295
rclavicle 1.85305e-014 -3.22031e-014
rhumerus -36.4365 22.9376 -94.0536
rradius 95.4593
rwrist 7.82321
rhand -8.79734 -0.0810833
rfingers 7.12502
rthumb 17.1415 -29.3449
lclavicle 1.85305e-014 -3.22031e-014
lhumerus -68.4348 -19.9927 92.0108
lradius 97.2958
lwrist -17.059
lhand -12.5 3.13923
lfingers 7.12502
lthumb 13.5751 32.6767
rfemur -4.97224 0.627969 23.9263
rtibia 38.6126
rfoot 19.5415 -21.4947
rtoes 25.737
lfemur -40.3738 -9.42694 -19.3205
ltibia 35.2016
lfoot 15.2719 7.15778
ltoes -10.8381
